{
  "accessors": [
    {
      "bufferView": 2,
      "componentType": 5126,
      "count": 2015,
      "max": [
        1.8341829776763916,
        0.14692799746990204,
        1.868198037147522
      ],
      "min": [
        -1.8341829776763916,
        -0.335781991481781,
        1.60201096534729
      ],
      "type": "VEC3"
    },
    {
      "bufferView": 2,
      "byteOffset": 24180,
      "componentType": 5126,
      "count": 2015,
      "max": [
        0.9998558759689331,
        0.9996420741081238,
        0.9999744892120361
      ],
      "min": [
        -0.9998664855957031,
        -0.9991288781166077,
        -0.9986028671264648
      ],
      "type": "VEC3"
    },
    {
      "bufferView": 1,
      "componentType": 5126,
      "count": 2015,
      "max": [
        0.9900000095367432,
        0.9900000095367432
      ],
      "min": [
        0.009999999776482582,
        0.1179480031132698
      ],
      "type": "VEC2"
    },
    {
      "bufferView": 0,
      "componentType": 5125,
      "count": 10158,
      "type": "SCALAR"
    },
    {
      "bufferView": 2,
      "byteOffset": 48360,
      "componentType": 5126,
      "count": 84,
      "max": [
        0.7323619723320007,
        -0.6603559851646423,
        3.092439889907837
      ],
      "min": [
        -0.7323639988899231,
        -0.67849200963974,
        1.8044179677963257
      ],
      "type": "VEC3"
    },
    {
      "bufferView": 2,
      "byteOffset": 49368,
      "componentType": 5126,
      "count": 84,
      "max": [
        0.8846043944358826,
        -0.4415082037448883,
        0.5831015706062317
      ],
      "min": [
        -0.8846060037612915,
        -0.9999223947525024,
        -0.7168612480163574
      ],
      "type": "VEC3"
    },
    {
      "bufferView": 1,
      "byteOffset": 16120,
      "componentType": 5126,
      "count": 84,
      "max": [
        0.9987009763717651,
        0.9842029809951782
      ],
      "min": [
        0.7546799778938293,
        0.7685089707374573
      ],
      "type": "VEC2"
    },
    {
      "bufferView": 0,
      "byteOffset": 40632,
      "componentType": 5125,
      "count": 426,
      "type": "SCALAR"
    },
    {
      "bufferView": 2,
      "byteOffset": 50376,
      "componentType": 5126,
      "count": 54,
      "max": [
        0.16088399291038513,
        -0.6793799996376038,
        1.6683729887008667
      ],
      "min": [
        -0.16088399291038513,
        -0.6979079842567444,
        1.5845860242843628
      ],
      "type": "VEC3"
    },
    {
      "bufferView": 2,
      "byteOffset": 51024,
      "componentType": 5126,
      "count": 54,
      "max": [
        0.8852013945579529,
        -0.30859580636024475,
        0.8876115083694458
      ],
      "min": [
        -0.9219874739646912,
        -0.9990696310997009,
        -0.8876317739486694
      ],
      "type": "VEC3"
    },
    {
      "bufferView": 1,
      "byteOffset": 16792,
      "componentType": 5126,
      "count": 54,
      "max": [
        0.407353013753891,
        0.6233670115470886
      ],
      "min": [
        0.35162800550460815,
        0.6070590019226074
      ],
      "type": "VEC2"
    },
    {
      "bufferView": 0,
      "byteOffset": 42336,
      "componentType": 5125,
      "count": 234,
      "type": "SCALAR"
    },
    {
      "bufferView": 2,
      "byteOffset": 51672,
      "componentType": 5126,
      "count": 168,
      "max": [
        1.0547879934310913,
        0.004428999964147806,
        3.373807907104492
      ],
      "min": [
        -1.0547879934310913,
        -0.013326999731361866,
        0.5163120031356812
      ],
      "type": "VEC3"
    },
    {
      "bufferView": 2,
      "byteOffset": 53688,
      "componentType": 5126,
      "count": 168,
      "max": [
        0.9987573623657227,
        0.999985933303833,
        0.9980331063270569
      ],
      "min": [
        -0.9987598657608032,
        -0.999985933303833,
        -0.9980306029319763
      ],
      "type": "VEC3"
    },
    {
      "bufferView": 1,
      "byteOffset": 17224,
      "componentType": 5126,
      "count": 168,
      "max": [
        0.9508820176124573,
        0.9900000095367432
      ],
      "min": [
        0.009999999776482582,
        0.009999999776482582
      ],
      "type": "VEC2"
    },
    {
      "bufferView": 0,
      "byteOffset": 43272,
      "componentType": 5125,
      "count": 432,
      "type": "SCALAR"
    },
    {
      "bufferView": 2,
      "byteOffset": 55704,
      "componentType": 5126,
      "count": 164,
      "max": [
        0.7805010080337524,
        -0.6924480199813843,
        1.6671299934387207
      ],
      "min": [
        0.16615399718284607,
        -0.7102680206298828,
        0.864425003528595
      ],
      "type": "VEC3"
    },
    {
      "bufferView": 2,
      "byteOffset": 57672,
      "componentType": 5126,
      "count": 164,
      "max": [
        1.0,
        -0.0,
        1.0
      ],
      "min": [
        -1.0,
        -1.0,
        -1.0
      ],
      "type": "VEC3"
    },
    {
      "bufferView": 1,
      "byteOffset": 18568,
      "componentType": 5126,
      "count": 164,
      "max": [
        0.933351993560791,
        0.9597690105438232
      ],
      "min": [
        0.23097099363803864,
        0.03269499912858009
      ],
      "type": "VEC2"
    },
    {
      "bufferView": 0,
      "byteOffset": 45000,
      "componentType": 5125,
      "count": 480,
      "type": "SCALAR"
    },
    {
      "bufferView": 2,
      "byteOffset": 59640,
      "componentType": 5126,
      "count": 246,
      "max": [
        0.7622770071029663,
        -0.693651020526886,
        1.6489059925079346
      ],
      "min": [
        0.1843789964914322,
        -0.7577409744262695,
        0.8826490044593811
      ],
      "type": "VEC3"
    },
    {
      "bufferView": 2,
      "byteOffset": 62592,
      "componentType": 5126,
      "count": 246,
      "max": [
        1.0,
        -0.0,
        1.0
      ],
      "min": [
        -1.0,
        -0.996545135974884,
        -1.0
      ],
      "type": "VEC3"
    },
    {
      "bufferView": 1,
      "byteOffset": 19880,
      "componentType": 5126,
      "count": 246,
      "max": [
        0.8236330151557922,
        0.9597690105438232
      ],
      "min": [
        0.059780001640319824,
        0.10056799650192261
      ],
      "type": "VEC2"
    },
    {
      "bufferView": 0,
      "byteOffset": 46920,
      "componentType": 5125,
      "count": 1068,
      "type": "SCALAR"
    },
    {
      "bufferView": 2,
      "byteOffset": 65544,
      "componentType": 5126,
      "count": 192,
      "max": [
        -0.13387300074100494,
        -0.7396150231361389,
        1.5769389867782593
      ],
      "min": [
        -0.7941830158233643,
        -0.7566779851913452,
        0.9398760199546814
      ],
      "type": "VEC3"
    },
    {
      "bufferView": 2,
      "byteOffset": 67848,
      "componentType": 5126,
      "count": 192,
      "max": [
        0.9839945435523987,
        -0.0,
        0.9839945435523987
      ],
      "min": [
        -0.9839945435523987,
        -0.8216550350189209,
        -0.9840120077133179
      ],
      "type": "VEC3"
    },
    {
      "bufferView": 1,
      "byteOffset": 21848,
      "componentType": 5126,
      "count": 192,
      "max": [
        0.9918860197067261,
        0.9640380144119263
      ],
      "min": [
        0.44242700934410095,
        0.008113999851047993
      ],
      "type": "VEC2"
    },
    {
      "bufferView": 0,
      "byteOffset": 51192,
      "componentType": 5125,
      "count": 552,
      "type": "SCALAR"
    },
    {
      "bufferView": 2,
      "byteOffset": 70152,
      "componentType": 5126,
      "count": 448,
      "max": [
        -0.06561599671840668,
        -0.6919370293617249,
        1.6568200588226318
      ],
      "min": [
        -0.8624399900436401,
        -0.7566779851913452,
        0.8599960207939148
      ],
      "type": "VEC3"
    },
    {
      "bufferView": 2,
      "byteOffset": 75528,
      "componentType": 5126,
      "count": 448,
      "max": [
        0.9998606443405151,
        0.0,
        0.9998606443405151
      ],
      "min": [
        -0.9998606443405151,
        -1.0,
        -0.9998606443405151
      ],
      "type": "VEC3"
    },
    {
      "bufferView": 1,
      "byteOffset": 23384,
      "componentType": 5126,
      "count": 448,
      "max": [
        0.9006779789924622,
        0.9353160262107849
      ],
      "min": [
        0.008113999851047993,
        0.008113999851047993
      ],
      "type": "VEC2"
    },
    {
      "bufferView": 0,
      "byteOffset": 53400,
      "componentType": 5125,
      "count": 1710,
      "type": "SCALAR"
    },
    {
      "bufferView": 2,
      "byteOffset": 80904,
      "componentType": 5126,
      "count": 364,
      "max": [
        -0.0546719990670681,
        -0.6927890181541443,
        1.6677639484405518
      ],
      "min": [
        -0.8733839988708496,
        -0.711247980594635,
        0.8490509986877441
      ],
      "type": "VEC3"
    },
    {
      "bufferView": 2,
      "byteOffset": 85272,
      "componentType": 5126,
      "count": 364,
      "max": [
        0.9998606443405151,
        0.0,
        0.9998606443405151
      ],
      "min": [
        -0.9998606443405151,
        -0.7832127213478088,
        -0.9998606443405151
      ],
      "type": "VEC3"
    },
    {
      "bufferView": 1,
      "byteOffset": 26968,
      "componentType": 5126,
      "count": 364,
      "max": [
        0.9528160095214844,
        0.8891689777374268
      ],
      "min": [
        0.6945989727973938,
        0.008113999851047993
      ],
      "type": "VEC2"
    },
    {
      "bufferView": 0,
      "byteOffset": 60240,
      "componentType": 5125,
      "count": 1080,
      "type": "SCALAR"
    },
    {
      "bufferView": 2,
      "byteOffset": 89640,
      "componentType": 5126,
      "count": 762,
      "max": [
        0.6667659878730774,
        0.19839100539684296,
        0.5614349842071533
      ],
      "min": [
        -0.6667659878730774,
        -0.3098300099372864,
        0.01140700001269579
      ],
      "type": "VEC3"
    },
    {
      "bufferView": 2,
      "byteOffset": 98784,
      "componentType": 5126,
      "count": 762,
      "max": [
        0.999943733215332,
        0.9938075542449951,
        0.8993415832519531
      ],
      "min": [
        -0.999943733215332,
        -0.9993428587913513,
        -0.9999951124191284
      ],
      "type": "VEC3"
    },
    {
      "bufferView": 1,
      "byteOffset": 29880,
      "componentType": 5126,
      "count": 762,
      "max": [
        0.9439949989318848,
        0.9941030144691467
      ],
      "min": [
        0.005896000191569328,
        0.005896000191569328
      ],
      "type": "VEC2"
    },
    {
      "bufferView": 0,
      "byteOffset": 64560,
      "componentType": 5125,
      "count": 2676,
      "type": "SCALAR"
    },
    {
      "bufferView": 2,
      "byteOffset": 107928,
      "componentType": 5126,
      "count": 525,
      "max": [
        1.0681220293045044,
        0.6979079842567444,
        3.392738103866577
      ],
      "min": [
        -1.0681220293045044,
        -0.6979079842567444,
        0.4973810017108917
      ],
      "type": "VEC3"
    },
    {
      "bufferView": 2,
      "byteOffset": 114228,
      "componentType": 5126,
      "count": 525,
      "max": [
        0.999707043170929,
        0.9993185997009277,
        0.9991464614868164
      ],
      "min": [
        -0.9997135996818542,
        -1.0,
        -0.9991464614868164
      ],
      "type": "VEC3"
    },
    {
      "bufferView": 3,
      "componentType": 5126,
      "count": 525,
      "max": [
        0.9936730265617371,
        0.9998531341552734,
        0.9999960660934448,
        1.0
      ],
      "min": [
        -0.9996820688247681,
        -0.9999447464942932,
        -0.9996646046638489,
        -1.0
      ],
      "type": "VEC4"
    },
    {
      "bufferView": 1,
      "byteOffset": 35976,
      "componentType": 5126,
      "count": 525,
      "max": [
        0.8767650127410889,
        0.9900000095367432
      ],
      "min": [
        0.009999999776482582,
        0.016176000237464905
      ],
      "type": "VEC2"
    },
    {
      "bufferView": 0,
      "byteOffset": 75264,
      "componentType": 5125,
      "count": 1998,
      "type": "SCALAR"
    }
  ],
  "asset": {
    "extras": {
      "author": "NoMoreFeelings (https://sketchfab.com/NoMoreFeelings)",
      "license": "CC-BY-4.0 (http://creativecommons.org/licenses/by/4.0/)",
      "source": "https://sketchfab.com/3d-models/gameboy-d1f396eae44141058ec945234af36b16",
      "title": "GameBoy"
    },
    "generator": "Sketchfab-12.65.0",
    "version": "2.0"
  },
  "bufferViews": [
    {
      "buffer": 0,
      "byteLength": 83256,
      "name": "floatBufferViews",
      "target": 34963
    },
    {
      "buffer": 0,
      "byteLength": 40176,
      "byteOffset": 83256,
      "byteStride": 8,
      "name": "floatBufferViews",
      "target": 34962
    },
    {
      "buffer": 0,
      "byteLength": 120528,
      "byteOffset": 123432,
      "byteStride": 12,
      "name": "floatBufferViews",
      "target": 34962
    },
    {
      "buffer": 0,
      "byteLength": 8400,
      "byteOffset": 243960,
      "byteStride": 16,
      "name": "floatBufferViews",
      "target": 34962
    }
  ],
  "buffers": [
    {
      "byteLength": 252360,
      "uri": "scene.bin"
    }
  ],
  "images": [
    {
      "uri": "textures/Material_baseColor.png"
    },
    {
      "uri": "textures/Material.001_baseColor.png"
    },
    {
      "uri": "textures/Material.001_metallicRoughness.png"
    },
    {
      "uri": "textures/Material.001_emissive.png"
    },
    {
      "uri": "textures/Material.002_baseColor.png"
    },
    {
      "uri": "textures/Material.004_baseColor.png"
    },
    {
      "uri": "textures/Material.005_baseColor.png"
    },
    {
      "uri": "textures/Material.005_metallicRoughness.png"
    },
    {
      "uri": "textures/Material.006_baseColor.png"
    },
    {
      "uri": "textures/Material.007_baseColor.png"
    },
    {
      "uri": "textures/Material.008_baseColor.png"
    },
    {
      "uri": "textures/Material.009_baseColor.png"
    },
    {
      "uri": "textures/None_baseColor.png"
    },
    {
      "uri": "textures/None_metallicRoughness.png"
    },
    {
      "uri": "textures/None_normal.png"
    }
  ],
  "materials": [
    {
      "doubleSided": true,
      "name": "Material",
      "pbrMetallicRoughness": {
        "baseColorTexture": {
          "index": 0
        },
        "metallicFactor": 0.0,
        "roughnessFactor": 0.6
      }
    },
    {
      "doubleSided": true,
      "emissiveFactor": [
        1.0,
        1.0,
        1.0
      ],
      "emissiveTexture": {
        "index": 3
      },
      "name": "Material.001",
      "pbrMetallicRoughness": {
        "baseColorTexture": {
          "index": 1
        },
        "metallicFactor": 0.0,
        "metallicRoughnessTexture": {
          "index": 2
        }
      }
    },
    {
      "doubleSided": true,
      "name": "Material.002",
      "pbrMetallicRoughness": {
        "baseColorTexture": {
          "index": 4
        },
        "metallicFactor": 0.0,
        "roughnessFactor": 0.6
      }
    },
    {
      "doubleSided": true,
      "name": "Material.003",
      "pbrMetallicRoughness": {
        "metallicFactor": 0.0,
        "roughnessFactor": 0.6
      }
    },
    {
      "doubleSided": true,
      "name": "Material.004",
      "pbrMetallicRoughness": {
        "baseColorTexture": {
          "index": 5
        },
        "metallicFactor": 0.0,
        "roughnessFactor": 0.6
      }
    },
    {
      "doubleSided": true,
      "name": "Material.005",
      "pbrMetallicRoughness": {
        "baseColorTexture": {
          "index": 6
        },
        "metallicFactor": 0.0,
        "metallicRoughnessTexture": {
          "index": 7
        }
      }
    },
    {
      "doubleSided": true,
      "name": "Material.006",
      "pbrMetallicRoughness": {
        "baseColorTexture": {
          "index": 8
        },
        "metallicFactor": 0.0,
        "roughnessFactor": 0.3248856707
      }
    },
    {
      "doubleSided": true,
      "name": "Material.007",
      "pbrMetallicRoughness": {
        "baseColorTexture": {
          "index": 9
        },
        "metallicFactor": 0.0,
        "roughnessFactor": 0.6
      }
    },
    {
      "doubleSided": true,
      "name": "Material.008",
      "pbrMetallicRoughness": {
        "baseColorTexture": {
          "index": 10
        },
        "metallicFactor": 0.0,
        "roughnessFactor": 0.6
      }
    },
    {
      "doubleSided": true,
      "name": "Material.009",
      "pbrMetallicRoughness": {
        "baseColorTexture": {
          "index": 11
        },
        "metallicFactor": 0.0,
        "roughnessFactor": 0.6
      }
    },
    {
      "doubleSided": true,
      "name": "None",
      "normalTexture": {
        "index": 14
      },
      "pbrMetallicRoughness": {
        "baseColorTexture": {
          "index": 12
        },
        "metallicFactor": 0.0,
        "metallicRoughnessTexture": {
          "index": 13
        },
        "roughnessFactor": 0.245617378
      }
    }
  ],
  "meshes": [
    {
      "name": "Object_0",
      "primitives": [
        {
          "attributes": {
            "NORMAL": 1,
            "POSITION": 0,
            "TEXCOORD_0": 2
          },
          "indices": 3,
          "material": 0,
          "mode": 4
        }
      ]
    },
    {
      "name": "Object_1",
      "primitives": [
        {
          "attributes": {
            "NORMAL": 5,
            "POSITION": 4,
            "TEXCOORD_0": 6
          },
          "indices": 7,
          "material": 1,
          "mode": 4
        }
      ]
    },
    {
      "name": "Object_2",
      "primitives": [
        {
          "attributes": {
            "NORMAL": 9,
            "POSITION": 8,
            "TEXCOORD_0": 10
          },
          "indices": 11,
          "material": 2,
          "mode": 4
        }
      ]
    },
    {
      "name": "Object_3",
      "primitives": [
        {
          "attributes": {
            "NORMAL": 13,
            "POSITION": 12,
            "TEXCOORD_0": 14
          },
          "indices": 15,
          "material": 3,
          "mode": 4
        }
      ]
    },
    {
      "name": "Object_4",
      "primitives": [
        {
          "attributes": {
            "NORMAL": 17,
            "POSITION": 16,
            "TEXCOORD_0": 18
          },
          "indices": 19,
          "material": 4,
          "mode": 4
        }
      ]
    },
    {
      "name": "Object_5",
      "primitives": [
        {
          "attributes": {
            "NORMAL": 21,
            "POSITION": 20,
            "TEXCOORD_0": 22
          },
          "indices": 23,
          "material": 5,
          "mode": 4
        }
      ]
    },
    {
      "name": "Object_6",
      "primitives": [
        {
          "attributes": {
            "NORMAL": 25,
            "POSITION": 24,
            "TEXCOORD_0": 26
          },
          "indices": 27,
          "material": 6,
          "mode": 4
        }
      ]
    },
    {
      "name": "Object_7",
      "primitives": [
        {
          "attributes": {
            "NORMAL": 29,
            "POSITION": 28,
            "TEXCOORD_0": 30
          },
          "indices": 31,
          "material": 7,
          "mode": 4
        }
      ]
    },
    {
      "name": "Object_8",
      "primitives": [
        {
          "attributes": {
            "NORMAL": 33,
            "POSITION": 32,
            "TEXCOORD_0": 34
          },
          "indices": 35,
          "material": 8,
          "mode": 4
        }
      ]
    },
    {
      "name": "Object_9",
      "primitives": [
        {
          "attributes": {
            "NORMAL": 37,
            "POSITION": 36,
            "TEXCOORD_0": 38
          },
          "indices": 39,
          "material": 9,
          "mode": 4
        }
      ]
    },
    {
      "name": "Object_10",
      "primitives": [
        {
          "attributes": {
            "NORMAL": 41,
            "POSITION": 40,
            "TANGENT": 42,
            "TEXCOORD_0": 43
          },
          "indices": 44,
          "material": 10,
          "mode": 4
        }
      ]
    }
  ],
  "nodes": [
    {
      "children": [
        1
      ],
      "matrix": [
        1.0,
        0.0,
        0.0,
        0.0,
        0.0,
        2.220446049250313e-16,
        -1.0,
        0.0,
        0.0,
        1.0,
        2.220446049250313e-16,
        0.0,
        0.0,
        0.0,
        0.0,
        1.0
      ],
      "name": "Sketchfab_model"
    },
    {
      "children": [
        2,
        3,
        4,
        5,
        6,
        7,
        8,
        9,
        10,
        11,
        12
      ],
      "name": "c98e3e3cb5ac4b688256fa72e0c4a571.obj.cleaner.materialmerger.gles"
    },
    {
      "mesh": 0,
      "name": "Object_2"
    },
    {
      "mesh": 1,
      "name": "Object_3"
    },
    {
      "mesh": 2,
      "name": "Object_4"
    },
    {
      "mesh": 3,
      "name": "Object_5"
    },
    {
      "mesh": 4,
      "name": "Object_6"
    },
    {
      "mesh": 5,
      "name": "Object_7"
    },
    {
      "mesh": 6,
      "name": "Object_8"
    },
    {
      "mesh": 7,
      "name": "Object_9"
    },
    {
      "mesh": 8,
      "name": "Object_10"
    },
    {
      "mesh": 9,
      "name": "Object_11"
    },
    {
      "mesh": 10,
      "name": "Object_12"
    }
  ],
  "samplers": [
    {
      "magFilter": 9729,
      "minFilter": 9987,
      "wrapS": 10497,
      "wrapT": 10497
    }
  ],
  "scene": 0,
  "scenes": [
    {
      "name": "Sketchfab_Scene",
      "nodes": [
        0
      ]
    }
  ],
  "textures": [
    {
      "sampler": 0,
      "source": 0
    },
    {
      "sampler": 0,
      "source": 1
    },
    {
      "sampler": 0,
      "source": 2
    },
    {
      "sampler": 0,
      "source": 3
    },
    {
      "sampler": 0,
      "source": 4
    },
    {
      "sampler": 0,
      "source": 5
    },
    {
      "sampler": 0,
      "source": 6
    },
    {
      "sampler": 0,
      "source": 7
    },
    {
      "sampler": 0,
      "source": 8
    },
    {
      "sampler": 0,
      "source": 9
    },
    {
      "sampler": 0,
      "source": 10
    },
    {
      "sampler": 0,
      "source": 11
    },
    {
      "sampler": 0,
      "source": 12
    },
    {
      "sampler": 0,
      "source": 13
    },
    {
      "sampler": 0,
      "source": 14
    }
  ]
}
